<?xml version="1.0" encoding="UTF-8" standalone="no"?><svg xmlns="http://www.w3.org/2000/svg" xmlns:xlink="http://www.w3.org/1999/xlink" contentScriptType="application/ecmascript" contentStyleType="text/css" height="1053px" preserveAspectRatio="none" style="width:1039px;height:1053px;" version="1.1" viewBox="0 0 1039 1053" width="1039px" zoomAndPan="magnify"><defs><filter height="300%" id="f58j21pwxxpo8" width="300%" x="-1" y="-1"><feGaussianBlur result="blurOut" stdDeviation="2.0"/><feColorMatrix in="blurOut" result="blurOut2" type="matrix" values="0 0 0 0 0 0 0 0 0 0 0 0 0 0 0 0 0 0 .4 0"/><feOffset dx="4.0" dy="4.0" in="blurOut2" result="blurOut3"/><feBlend in="SourceGraphic" in2="blurOut3" mode="normal"/></filter></defs><g><!--MD5=[56e4c9075fa7c9f4c09ef0a20c49f72c]
class T--><rect codeLine="2" fill="#FEFECE" filter="url(#f58j21pwxxpo8)" height="48" id="T" style="stroke:#A80036;stroke-width:1.5;" width="39" x="332.5" y="45.5"/><ellipse cx="347.5" cy="61.5" fill="#ADD1B2" rx="11" ry="11" style="stroke:#A80036;stroke-width:1.0;"/><path d="M349.8437,57.1719 C348.9062,56.7344 348.3125,56.5938 347.4375,56.5938 C344.8125,56.5938 342.8125,58.6719 342.8125,61.3906 L342.8125,62.5156 C342.8125,65.0938 344.9219,66.9844 347.8125,66.9844 C349.0312,66.9844 350.1875,66.6875 350.9375,66.1406 C351.5156,65.7344 351.8437,65.2813 351.8437,64.8906 C351.8437,64.4375 351.4531,64.0469 350.9844,64.0469 C350.7656,64.0469 350.5625,64.125 350.375,64.3125 C349.9219,64.7969 349.9219,64.7969 349.7344,64.8906 C349.3125,65.1563 348.625,65.2813 347.8594,65.2813 C345.8125,65.2813 344.5156,64.1875 344.5156,62.4844 L344.5156,61.3906 C344.5156,59.6094 345.7656,58.2969 347.5,58.2969 C348.0781,58.2969 348.6875,58.4531 349.1562,58.7031 C349.6406,58.9844 349.8125,59.2031 349.9062,59.6094 C349.9687,60.0156 350,60.1406 350.1406,60.2656 C350.2812,60.4063 350.5156,60.5156 350.7344,60.5156 C351,60.5156 351.2656,60.375 351.4375,60.1563 C351.5469,60 351.5781,59.8125 351.5781,59.3906 L351.5781,57.9688 C351.5781,57.5313 351.5625,57.4063 351.4687,57.25 C351.3125,56.9844 351.0312,56.8438 350.7344,56.8438 C350.4375,56.8438 350.2344,56.9375 350.0156,57.25 L349.8437,57.1719 Z " fill="#000000"/><text fill="#000000" font-family="sans-serif" font-size="12" lengthAdjust="spacing" textLength="7" x="361.5" y="65.6543">T</text><line style="stroke:#A80036;stroke-width:1.5;" x1="333.5" x2="370.5" y1="77.5" y2="77.5"/><line style="stroke:#A80036;stroke-width:1.5;" x1="333.5" x2="370.5" y1="85.5" y2="85.5"/><!--MD5=[055ae584e8f48d8fc3c3de49aadf0637]
class Dashboard--><rect codeLine="3" fill="#FEFECE" filter="url(#f58j21pwxxpo8)" height="124.8281" id="Dashboard" style="stroke:#A80036;stroke-width:1.5;" width="218" x="407" y="7"/><ellipse cx="478.75" cy="23" fill="#ADD1B2" rx="11" ry="11" style="stroke:#A80036;stroke-width:1.0;"/><path d="M481.0937,18.6719 C480.1562,18.2344 479.5625,18.0938 478.6875,18.0938 C476.0625,18.0938 474.0625,20.1719 474.0625,22.8906 L474.0625,24.0156 C474.0625,26.5938 476.1719,28.4844 479.0625,28.4844 C480.2812,28.4844 481.4375,28.1875 482.1875,27.6406 C482.7656,27.2344 483.0937,26.7813 483.0937,26.3906 C483.0937,25.9375 482.7031,25.5469 482.2344,25.5469 C482.0156,25.5469 481.8125,25.625 481.625,25.8125 C481.1719,26.2969 481.1719,26.2969 480.9844,26.3906 C480.5625,26.6563 479.875,26.7813 479.1094,26.7813 C477.0625,26.7813 475.7656,25.6875 475.7656,23.9844 L475.7656,22.8906 C475.7656,21.1094 477.0156,19.7969 478.75,19.7969 C479.3281,19.7969 479.9375,19.9531 480.4062,20.2031 C480.8906,20.4844 481.0625,20.7031 481.1562,21.1094 C481.2187,21.5156 481.25,21.6406 481.3906,21.7656 C481.5312,21.9063 481.7656,22.0156 481.9844,22.0156 C482.25,22.0156 482.5156,21.875 482.6875,21.6563 C482.7969,21.5 482.8281,21.3125 482.8281,20.8906 L482.8281,19.4688 C482.8281,19.0313 482.8125,18.9063 482.7187,18.75 C482.5625,18.4844 482.2812,18.3438 481.9844,18.3438 C481.6875,18.3438 481.4844,18.4375 481.2656,18.75 L481.0937,18.6719 Z " fill="#000000"/><text fill="#000000" font-family="sans-serif" font-size="12" lengthAdjust="spacing" textLength="66" x="499.25" y="27.1543">Dashboard</text><line style="stroke:#A80036;stroke-width:1.5;" x1="408" x2="624" y1="39" y2="39"/><rect fill="none" height="6" style="stroke:#C82930;stroke-width:1.0;" width="6" x="415" y="47"/><text fill="#000000" font-family="sans-serif" font-size="11" lengthAdjust="spacing" textLength="140" x="427" y="53.2104">raceEvents: RaceEvent[]</text><rect fill="none" height="6" style="stroke:#C82930;stroke-width:1.0;" width="6" x="415" y="59.8047"/><text fill="#000000" font-family="sans-serif" font-size="11" lengthAdjust="spacing" textLength="169" x="427" y="66.0151">currentRaceEvent: RaceEvent</text><rect fill="none" height="6" style="stroke:#C82930;stroke-width:1.0;" width="6" x="415" y="72.6094"/><text fill="#000000" font-family="sans-serif" font-size="11" lengthAdjust="spacing" textLength="89" x="427" y="78.8198">display: Display</text><line style="stroke:#A80036;stroke-width:1.5;" x1="408" x2="624" y1="85.4141" y2="85.4141"/><rect fill="#F24D5C" height="6" style="stroke:#C82930;stroke-width:1.0;" width="6" x="415" y="93.4141"/><text fill="#000000" font-family="sans-serif" font-size="11" lengthAdjust="spacing" textLength="96" x="427" y="99.6245">newEvent(): void</text><rect fill="#F24D5C" height="6" style="stroke:#C82930;stroke-width:1.0;" width="6" x="415" y="106.2188"/><text fill="#000000" font-family="sans-serif" font-size="11" lengthAdjust="spacing" textLength="161" x="427" y="112.4292">saveToDB(): Promise&lt;void&gt;</text><rect fill="#F24D5C" height="6" style="stroke:#C82930;stroke-width:1.0;" width="6" x="415" y="119.0234"/><text fill="#000000" font-family="sans-serif" font-size="11" lengthAdjust="spacing" textLength="192" x="427" y="125.2339">removeFromDB(): Promise&lt;void&gt;</text><!--MD5=[292033ffe4750640675b59034298e578]
class Display--><rect codeLine="11" fill="#FEFECE" filter="url(#f58j21pwxxpo8)" height="342.5078" id="Display" style="stroke:#A80036;stroke-width:1.5;" width="421" x="173.5" y="192"/><ellipse cx="357.75" cy="208" fill="#ADD1B2" rx="11" ry="11" style="stroke:#A80036;stroke-width:1.0;"/><path d="M360.0937,203.6719 C359.1562,203.2344 358.5625,203.0938 357.6875,203.0938 C355.0625,203.0938 353.0625,205.1719 353.0625,207.8906 L353.0625,209.0156 C353.0625,211.5938 355.1719,213.4844 358.0625,213.4844 C359.2812,213.4844 360.4375,213.1875 361.1875,212.6406 C361.7656,212.2344 362.0937,211.7813 362.0937,211.3906 C362.0937,210.9375 361.7031,210.5469 361.2344,210.5469 C361.0156,210.5469 360.8125,210.625 360.625,210.8125 C360.1719,211.2969 360.1719,211.2969 359.9844,211.3906 C359.5625,211.6563 358.875,211.7813 358.1094,211.7813 C356.0625,211.7813 354.7656,210.6875 354.7656,208.9844 L354.7656,207.8906 C354.7656,206.1094 356.0156,204.7969 357.75,204.7969 C358.3281,204.7969 358.9375,204.9531 359.4062,205.2031 C359.8906,205.4844 360.0625,205.7031 360.1562,206.1094 C360.2187,206.5156 360.25,206.6406 360.3906,206.7656 C360.5312,206.9063 360.7656,207.0156 360.9844,207.0156 C361.25,207.0156 361.5156,206.875 361.6875,206.6563 C361.7969,206.5 361.8281,206.3125 361.8281,205.8906 L361.8281,204.4688 C361.8281,204.0313 361.8125,203.9063 361.7187,203.75 C361.5625,203.4844 361.2812,203.3438 360.9844,203.3438 C360.6875,203.3438 360.4844,203.4375 360.2656,203.75 L360.0937,203.6719 Z " fill="#000000"/><text fill="#000000" font-family="sans-serif" font-size="12" lengthAdjust="spacing" textLength="44" x="378.25" y="212.1543">Display</text><line style="stroke:#A80036;stroke-width:1.5;" x1="174.5" x2="593.5" y1="224" y2="224"/><rect fill="none" height="6" style="stroke:#C82930;stroke-width:1.0;" width="6" x="181.5" y="232"/><text fill="#000000" font-family="sans-serif" font-size="11" lengthAdjust="spacing" textLength="129" x="193.5" y="238.2104">initDOM: HTMLElement</text><rect fill="none" height="6" style="stroke:#C82930;stroke-width:1.0;" width="6" x="181.5" y="244.8047"/><text fill="#000000" font-family="sans-serif" font-size="11" lengthAdjust="spacing" textLength="164" x="193.5" y="251.0151">eventContent: HTMLElement</text><rect fill="none" height="6" style="stroke:#C82930;stroke-width:1.0;" width="6" x="181.5" y="257.6094"/><text fill="#000000" font-family="sans-serif" font-size="11" lengthAdjust="spacing" textLength="138" x="193.5" y="263.8198">eventList: HTMLElement</text><rect fill="none" height="6" style="stroke:#C82930;stroke-width:1.0;" width="6" x="181.5" y="270.4141"/><text fill="#000000" font-family="sans-serif" font-size="11" lengthAdjust="spacing" textLength="126" x="193.5" y="276.6245">raceEvent: RaceEvent</text><line style="stroke:#A80036;stroke-width:1.5;" x1="174.5" x2="593.5" y1="283.2188" y2="283.2188"/><ellipse cx="184.5" cy="294.2188" fill="#84BE84" rx="3" ry="3" style="stroke:#038048;stroke-width:1.0;"/><text fill="#000000" font-family="sans-serif" font-size="11" lengthAdjust="spacing" textLength="395" x="193.5" y="297.4292">update(currentRaceEvent: RaceEvent, raceEvents: RaceEvent[]): void</text><ellipse cx="184.5" cy="307.0234" fill="#84BE84" rx="3" ry="3" style="stroke:#038048;stroke-width:1.0;"/><text fill="#000000" font-family="sans-serif" font-size="11" lengthAdjust="spacing" textLength="202" x="193.5" y="310.2339">uploadTrackImg(event: Event): void</text><ellipse cx="184.5" cy="319.8281" fill="#84BE84" rx="3" ry="3" style="stroke:#038048;stroke-width:1.0;"/><text fill="#000000" font-family="sans-serif" font-size="11" lengthAdjust="spacing" textLength="191" x="193.5" y="323.0386">uploadCarImg(event: Event): void</text><ellipse cx="184.5" cy="332.6328" fill="#84BE84" rx="3" ry="3" style="stroke:#038048;stroke-width:1.0;"/><text fill="#000000" font-family="sans-serif" font-size="11" lengthAdjust="spacing" textLength="271" x="193.5" y="335.8433">updateEventList(raceEvents: RaceEvent[]): void</text><rect fill="#F24D5C" height="6" style="stroke:#C82930;stroke-width:1.0;" width="6" x="181.5" y="342.4375"/><text fill="#000000" font-family="sans-serif" font-size="11" lengthAdjust="spacing" textLength="107" x="193.5" y="348.6479">updateDate(): void</text><rect fill="#F24D5C" height="6" style="stroke:#C82930;stroke-width:1.0;" width="6" x="181.5" y="355.2422"/><text fill="#000000" font-family="sans-serif" font-size="11" lengthAdjust="spacing" textLength="160" x="193.5" y="361.4526">updateParticipantMax(): void</text><rect fill="#F24D5C" height="6" style="stroke:#C82930;stroke-width:1.0;" width="6" x="181.5" y="368.0469"/><text fill="#000000" font-family="sans-serif" font-size="11" lengthAdjust="spacing" textLength="100" x="193.5" y="374.2573">updateInfo(): void</text><rect fill="#F24D5C" height="6" style="stroke:#C82930;stroke-width:1.0;" width="6" x="181.5" y="380.8516"/><text fill="#000000" font-family="sans-serif" font-size="11" lengthAdjust="spacing" textLength="109" x="193.5" y="387.062">changeDate(): void</text><rect fill="#F24D5C" height="6" style="stroke:#C82930;stroke-width:1.0;" width="6" x="181.5" y="393.6563"/><text fill="#000000" font-family="sans-serif" font-size="11" lengthAdjust="spacing" textLength="162" x="193.5" y="399.8667">changeParticipantMax(): void</text><rect fill="#F24D5C" height="6" style="stroke:#C82930;stroke-width:1.0;" width="6" x="181.5" y="406.4609"/><text fill="#000000" font-family="sans-serif" font-size="11" lengthAdjust="spacing" textLength="102" x="193.5" y="412.6714">changeInfo(): void</text><rect fill="#F24D5C" height="6" style="stroke:#C82930;stroke-width:1.0;" width="6" x="181.5" y="419.2656"/><text fill="#000000" font-family="sans-serif" font-size="11" lengthAdjust="spacing" textLength="115" x="193.5" y="425.4761">updateTracks(): void</text><rect fill="#F24D5C" height="6" style="stroke:#C82930;stroke-width:1.0;" width="6" x="181.5" y="432.0703"/><text fill="#000000" font-family="sans-serif" font-size="11" lengthAdjust="spacing" textLength="104" x="193.5" y="438.2808">updateCars(): void</text><rect fill="#F24D5C" height="6" style="stroke:#C82930;stroke-width:1.0;" width="6" x="181.5" y="444.875"/><text fill="#000000" font-family="sans-serif" font-size="11" lengthAdjust="spacing" textLength="207" x="193.5" y="451.0854">removeElement(event: Event): 0 | 1</text><rect fill="#F24D5C" height="6" style="stroke:#C82930;stroke-width:1.0;" width="6" x="181.5" y="457.6797"/><text fill="#000000" font-family="sans-serif" font-size="11" lengthAdjust="spacing" textLength="106" x="193.5" y="463.8901">updateImgs(): void</text><rect fill="#F24D5C" height="6" style="stroke:#C82930;stroke-width:1.0;" width="6" x="181.5" y="470.4844"/><text fill="#000000" font-family="sans-serif" font-size="11" lengthAdjust="spacing" textLength="137" x="193.5" y="476.6948">updateParticipant(): void</text><rect fill="#F24D5C" height="6" style="stroke:#C82930;stroke-width:1.0;" width="6" x="181.5" y="483.2891"/><text fill="#000000" font-family="sans-serif" font-size="11" lengthAdjust="spacing" textLength="90" x="193.5" y="489.4995">addTrack(): void</text><rect fill="#F24D5C" height="6" style="stroke:#C82930;stroke-width:1.0;" width="6" x="181.5" y="496.0938"/><text fill="#000000" font-family="sans-serif" font-size="11" lengthAdjust="spacing" textLength="79" x="193.5" y="502.3042">addCar(): void</text><rect fill="#F24D5C" height="6" style="stroke:#C82930;stroke-width:1.0;" width="6" x="181.5" y="508.8984"/><text fill="#000000" font-family="sans-serif" font-size="11" lengthAdjust="spacing" textLength="118" x="193.5" y="515.1089">addParticipant(): void</text><rect fill="#F24D5C" height="6" style="stroke:#C82930;stroke-width:1.0;" width="6" x="181.5" y="521.7031"/><text fill="#000000" font-family="sans-serif" font-size="11" lengthAdjust="spacing" textLength="174" x="193.5" y="527.9136">createInitDOM(): HTMLElement</text><!--MD5=[cdc4c02876ea1d7b32fdc22314edac0f]
class RaceEvent--><rect codeLine="36" fill="#FEFECE" filter="url(#f58j21pwxxpo8)" height="444.9453" id="RaceEvent" style="stroke:#A80036;stroke-width:1.5;" width="1018" x="7" y="595"/><ellipse cx="480.75" cy="611" fill="#ADD1B2" rx="11" ry="11" style="stroke:#A80036;stroke-width:1.0;"/><path d="M483.0938,606.6719 C482.1563,606.2344 481.5625,606.0938 480.6875,606.0938 C478.0625,606.0938 476.0625,608.1719 476.0625,610.8906 L476.0625,612.0156 C476.0625,614.5938 478.1719,616.4844 481.0625,616.4844 C482.2813,616.4844 483.4375,616.1875 484.1875,615.6406 C484.7656,615.2344 485.0938,614.7813 485.0938,614.3906 C485.0938,613.9375 484.7031,613.5469 484.2344,613.5469 C484.0156,613.5469 483.8125,613.625 483.625,613.8125 C483.1719,614.2969 483.1719,614.2969 482.9844,614.3906 C482.5625,614.6563 481.875,614.7813 481.1094,614.7813 C479.0625,614.7813 477.7656,613.6875 477.7656,611.9844 L477.7656,610.8906 C477.7656,609.1094 479.0156,607.7969 480.75,607.7969 C481.3281,607.7969 481.9375,607.9531 482.4063,608.2031 C482.8906,608.4844 483.0625,608.7031 483.1563,609.1094 C483.2188,609.5156 483.25,609.6406 483.3906,609.7656 C483.5313,609.9063 483.7656,610.0156 483.9844,610.0156 C484.25,610.0156 484.5156,609.875 484.6875,609.6563 C484.7969,609.5 484.8281,609.3125 484.8281,608.8906 L484.8281,607.4688 C484.8281,607.0313 484.8125,606.9063 484.7188,606.75 C484.5625,606.4844 484.2813,606.3438 483.9844,606.3438 C483.6875,606.3438 483.4844,606.4375 483.2656,606.75 L483.0938,606.6719 Z " fill="#000000"/><text fill="#000000" font-family="sans-serif" font-size="12" lengthAdjust="spacing" textLength="62" x="501.25" y="615.1543">RaceEvent</text><line style="stroke:#A80036;stroke-width:1.5;" x1="8" x2="1024" y1="627" y2="627"/><rect fill="none" height="6" style="stroke:#C82930;stroke-width:1.0;" width="6" x="15" y="635"/><text fill="#000000" font-family="sans-serif" font-size="11" lengthAdjust="spacing" textLength="48" x="27" y="641.2104">id: string</text><rect fill="none" height="6" style="stroke:#C82930;stroke-width:1.0;" width="6" x="15" y="647.8047"/><text fill="#000000" font-family="sans-serif" font-size="11" lengthAdjust="spacing" textLength="69" x="27" y="654.0151">tracks: any[]</text><rect fill="none" height="6" style="stroke:#C82930;stroke-width:1.0;" width="6" x="15" y="660.6094"/><text fill="#000000" font-family="sans-serif" font-size="11" lengthAdjust="spacing" textLength="59" x="27" y="666.8198">cars: any[]</text><rect fill="none" height="6" style="stroke:#C82930;stroke-width:1.0;" width="6" x="15" y="673.4141"/><text fill="#000000" font-family="sans-serif" font-size="11" lengthAdjust="spacing" textLength="86" x="27" y="679.6245">trackImg: string</text><rect fill="none" height="6" style="stroke:#C82930;stroke-width:1.0;" width="6" x="15" y="686.2188"/><text fill="#000000" font-family="sans-serif" font-size="11" lengthAdjust="spacing" textLength="76" x="27" y="692.4292">carImg: string</text><rect fill="none" height="6" style="stroke:#C82930;stroke-width:1.0;" width="6" x="15" y="699.0234"/><text fill="#000000" font-family="sans-serif" font-size="11" lengthAdjust="spacing" textLength="111" x="27" y="705.2339">participants: string[]</text><rect fill="none" height="6" style="stroke:#C82930;stroke-width:1.0;" width="6" x="15" y="711.8281"/><text fill="#000000" font-family="sans-serif" font-size="11" lengthAdjust="spacing" textLength="140" x="27" y="718.0386">maxParticipants: number</text><rect fill="none" height="6" style="stroke:#C82930;stroke-width:1.0;" width="6" x="15" y="724.6328"/><text fill="#000000" font-family="sans-serif" font-size="11" lengthAdjust="spacing" textLength="61" x="27" y="730.8433">date: Date</text><rect fill="none" height="6" style="stroke:#C82930;stroke-width:1.0;" width="6" x="15" y="737.4375"/><text fill="#000000" font-family="sans-serif" font-size="11" lengthAdjust="spacing" textLength="93" x="27" y="743.6479">eventImg: string</text><rect fill="none" height="6" style="stroke:#C82930;stroke-width:1.0;" width="6" x="15" y="750.2422"/><text fill="#000000" font-family="sans-serif" font-size="11" lengthAdjust="spacing" textLength="59" x="27" y="756.4526">info: string</text><line style="stroke:#A80036;stroke-width:1.5;" x1="8" x2="1024" y1="763.0469" y2="763.0469"/><ellipse cx="18" cy="774.0469" fill="#84BE84" rx="3" ry="3" style="stroke:#038048;stroke-width:1.0;"/><text fill="#000000" font-family="sans-serif" font-size="11" lengthAdjust="spacing" textLength="992" x="27" y="777.2573">generateJSON(): { tracks: any[]; cars: any[]; trackImg: string; carImg: string; participants: string[]; maxParticipants: number; date: Date; info: string; eventImg: string; _id: string; }</text><ellipse cx="18" cy="786.8516" fill="#84BE84" rx="3" ry="3" style="stroke:#038048;stroke-width:1.0;"/><text fill="#000000" font-family="sans-serif" font-size="11" lengthAdjust="spacing" textLength="146" x="27" y="790.062">setDate(date: Date): void</text><ellipse cx="18" cy="799.6563" fill="#84BE84" rx="3" ry="3" style="stroke:#038048;stroke-width:1.0;"/><text fill="#000000" font-family="sans-serif" font-size="11" lengthAdjust="spacing" textLength="233" x="27" y="802.8667">setParticipantMax(number: number): void</text><ellipse cx="18" cy="812.4609" fill="#84BE84" rx="3" ry="3" style="stroke:#038048;stroke-width:1.0;"/><text fill="#000000" font-family="sans-serif" font-size="11" lengthAdjust="spacing" textLength="139" x="27" y="815.6714">setInfo(text: string): void</text><ellipse cx="18" cy="825.2656" fill="#84BE84" rx="3" ry="3" style="stroke:#038048;stroke-width:1.0;"/><text fill="#000000" font-family="sans-serif" font-size="11" lengthAdjust="spacing" textLength="162" x="27" y="828.4761">setTrackImg(src: string): void</text><ellipse cx="18" cy="838.0703" fill="#84BE84" rx="3" ry="3" style="stroke:#038048;stroke-width:1.0;"/><text fill="#000000" font-family="sans-serif" font-size="11" lengthAdjust="spacing" textLength="151" x="27" y="841.2808">setCarImg(src: string): void</text><ellipse cx="18" cy="850.875" fill="#84BE84" rx="3" ry="3" style="stroke:#038048;stroke-width:1.0;"/><text fill="#000000" font-family="sans-serif" font-size="11" lengthAdjust="spacing" textLength="185" x="27" y="854.0854">removeTrack(name: string): void</text><ellipse cx="18" cy="863.6797" fill="#84BE84" rx="3" ry="3" style="stroke:#038048;stroke-width:1.0;"/><text fill="#000000" font-family="sans-serif" font-size="11" lengthAdjust="spacing" textLength="174" x="27" y="866.8901">removeCar(name: string): void</text><ellipse cx="18" cy="876.4844" fill="#84BE84" rx="3" ry="3" style="stroke:#038048;stroke-width:1.0;"/><text fill="#000000" font-family="sans-serif" font-size="11" lengthAdjust="spacing" textLength="213" x="27" y="879.6948">removeParticipant(name: string): void</text><ellipse cx="18" cy="889.2891" fill="#84BE84" rx="3" ry="3" style="stroke:#038048;stroke-width:1.0;"/><text fill="#000000" font-family="sans-serif" font-size="11" lengthAdjust="spacing" textLength="145" x="27" y="892.4995">addTrack(track: any): void</text><ellipse cx="18" cy="902.0938" fill="#84BE84" rx="3" ry="3" style="stroke:#038048;stroke-width:1.0;"/><text fill="#000000" font-family="sans-serif" font-size="11" lengthAdjust="spacing" textLength="124" x="27" y="905.3042">addCar(car: any): void</text><ellipse cx="18" cy="914.8984" fill="#84BE84" rx="3" ry="3" style="stroke:#038048;stroke-width:1.0;"/><text fill="#000000" font-family="sans-serif" font-size="11" lengthAdjust="spacing" textLength="215" x="27" y="918.1089">addParticipant(participant: string): void</text><ellipse cx="18" cy="927.7031" fill="#84BE84" rx="3" ry="3" style="stroke:#038048;stroke-width:1.0;"/><text fill="#000000" font-family="sans-serif" font-size="11" lengthAdjust="spacing" textLength="75" x="27" y="930.9136">getId(): string</text><ellipse cx="18" cy="940.5078" fill="#84BE84" rx="3" ry="3" style="stroke:#038048;stroke-width:1.0;"/><text fill="#000000" font-family="sans-serif" font-size="11" lengthAdjust="spacing" textLength="93" x="27" y="943.7183">getDate(): string</text><ellipse cx="18" cy="953.3125" fill="#84BE84" rx="3" ry="3" style="stroke:#038048;stroke-width:1.0;"/><text fill="#000000" font-family="sans-serif" font-size="11" lengthAdjust="spacing" textLength="159" x="27" y="956.5229">getParticipantMax(): number</text><ellipse cx="18" cy="966.1172" fill="#84BE84" rx="3" ry="3" style="stroke:#038048;stroke-width:1.0;"/><text fill="#000000" font-family="sans-serif" font-size="11" lengthAdjust="spacing" textLength="86" x="27" y="969.3276">getInfo(): string</text><ellipse cx="18" cy="978.9219" fill="#84BE84" rx="3" ry="3" style="stroke:#038048;stroke-width:1.0;"/><text fill="#000000" font-family="sans-serif" font-size="11" lengthAdjust="spacing" textLength="99" x="27" y="982.1323">getTracks(): any[]</text><ellipse cx="18" cy="991.7266" fill="#84BE84" rx="3" ry="3" style="stroke:#038048;stroke-width:1.0;"/><text fill="#000000" font-family="sans-serif" font-size="11" lengthAdjust="spacing" textLength="88" x="27" y="994.937">getCars(): any[]</text><ellipse cx="18" cy="1004.5313" fill="#84BE84" rx="3" ry="3" style="stroke:#038048;stroke-width:1.0;"/><text fill="#000000" font-family="sans-serif" font-size="11" lengthAdjust="spacing" textLength="116" x="27" y="1007.7417">getTrackImg(): string</text><ellipse cx="18" cy="1017.3359" fill="#84BE84" rx="3" ry="3" style="stroke:#038048;stroke-width:1.0;"/><text fill="#000000" font-family="sans-serif" font-size="11" lengthAdjust="spacing" textLength="105" x="27" y="1020.5464">getCarImg(): string</text><ellipse cx="18" cy="1030.1406" fill="#84BE84" rx="3" ry="3" style="stroke:#038048;stroke-width:1.0;"/><text fill="#000000" font-family="sans-serif" font-size="11" lengthAdjust="spacing" textLength="137" x="27" y="1033.3511">getParticipants(): string[]</text><!--MD5=[6edefecb442e3b42d55816ace59a6f68]
reverse link Dashboard to RaceEvent--><path codeLine="69" d="M585.574,142.9 C596.417,158.066 606.001,174.732 612,192 C656.95,321.395 635.205,473.149 601.136,594.66 " fill="none" id="Dashboard-backto-RaceEvent" style="stroke:#A80036;stroke-width:1.0;"/><polygon fill="#A80036" points="577.49,132.134,577.894,139.3338,584.6953,141.73,584.2913,134.5303,577.49,132.134" style="stroke:#A80036;stroke-width:1.0;"/><!--MD5=[673f65069c11d07746be7f4c117125fe]
reverse link Dashboard to Display--><path codeLine="70" d="M482.671,144.227 C475.948,159.1 468.62,175.31 461.094,191.959 " fill="none" id="Dashboard-backto-Display" style="stroke:#A80036;stroke-width:1.0;"/><polygon fill="#A80036" points="488.167,132.069,482.0506,135.8886,483.2238,143.0036,489.3403,139.184,488.167,132.069" style="stroke:#A80036;stroke-width:1.0;"/><!--MD5=[a4a21bb2b165fb1d6e03fdc17ff0783b]
reverse link Display to RaceEvent--><path codeLine="71" d="M437.571,547.941 C442.074,563.36 446.657,579.053 451.232,594.719 " fill="none" id="Display-backto-RaceEvent" style="stroke:#A80036;stroke-width:1.0;"/><polygon fill="#A80036" points="433.809,535.06,431.6514,541.9407,437.173,546.5788,439.3306,539.6981,433.809,535.06" style="stroke:#A80036;stroke-width:1.0;"/><!--MD5=[6262a2330371b980f667ee03693e3160]
@startuml
class T
class T
class Dashboard {
    -raceEvents: RaceEvent[]
    -currentRaceEvent: RaceEvent
    -display: Display
    -newEvent(): void
    -saveToDB(): Promise<void>
    -removeFromDB(): Promise<void>
}
class Display {
    -initDOM: HTMLElement
    -eventContent: HTMLElement
    -eventList: HTMLElement
    -raceEvent: RaceEvent
    +update(currentRaceEvent: RaceEvent, raceEvents: RaceEvent[]): void
    +uploadTrackImg(event: Event): void
    +uploadCarImg(event: Event): void
    +updateEventList(raceEvents: RaceEvent[]): void
    -updateDate(): void
    -updateParticipantMax(): void
    -updateInfo(): void
    -changeDate(): void
    -changeParticipantMax(): void
    -changeInfo(): void
    -updateTracks(): void
    -updateCars(): void
    -removeElement(event: Event): 0 | 1
    -updateImgs(): void
    -updateParticipant(): void
    -addTrack(): void
    -addCar(): void
    -addParticipant(): void
    -createInitDOM(): HTMLElement
}
class RaceEvent {
    -id: string
    -tracks: any[]
    -cars: any[]
    -trackImg: string
    -carImg: string
    -participants: string[]
    -maxParticipants: number
    -date: Date
    -eventImg: string
    -info: string
    +generateJSON(): { tracks: any[]; cars: any[]; trackImg: string; carImg: string; participants: string[]; maxParticipants: number; date: Date; info: string; eventImg: string; _id: string; }
    +setDate(date: Date): void
    +setParticipantMax(number: number): void
    +setInfo(text: string): void
    +setTrackImg(src: string): void
    +setCarImg(src: string): void
    +removeTrack(name: string): void
    +removeCar(name: string): void
    +removeParticipant(name: string): void
    +addTrack(track: any): void
    +addCar(car: any): void
    +addParticipant(participant: string): void
    +getId(): string
    +getDate(): string
    +getParticipantMax(): number
    +getInfo(): string
    +getTracks(): any[]
    +getCars(): any[]
    +getTrackImg(): string
    +getCarImg(): string
    +getParticipants(): string[]
}
Dashboard *- - RaceEvent
Dashboard *- - Display
Display *- - RaceEvent
@enduml

PlantUML version 1.2021.01beta3(Unknown compile time)
(GPL source distribution)
Java Runtime: Java(TM) SE Runtime Environment
JVM: Java HotSpot(TM) 64-Bit Server VM
Default Encoding: UTF-8
Language: en
Country: US
--></g></svg>